<?xml version="1.0" encoding="us-ascii" standalone="no"?><svg xmlns="http://www.w3.org/2000/svg" xmlns:xlink="http://www.w3.org/1999/xlink" contentStyleType="text/css" height="821px" preserveAspectRatio="none" style="width:2400px;height:821px;background:#FFFFFF;" version="1.1" viewBox="0 0 2400 821" width="2400px" zoomAndPan="magnify"><defs/><g><!--class Election--><g id="elem_Election"><rect codeLine="37" fill="#FFFFFF" height="163.1025" id="Election" rx="2.5" ry="2.5" style="stroke:#000000;stroke-width:1.0;" width="241" x="1022" y="12"/><ellipse cx="1111.25" cy="26" fill="#FFFFFF" rx="9" ry="9" style="stroke:#000000;stroke-width:1.0;"/><path d="M1113.7231,32.1431 Q1113.1421,32.4419 1112.5029,32.5913 Q1111.8638,32.7407 1111.1582,32.7407 Q1108.6514,32.7407 1107.3315,31.0889 Q1106.0117,29.437 1106.0117,26.3159 Q1106.0117,23.1865 1107.3315,21.5347 Q1108.6514,19.8828 1111.1582,19.8828 Q1111.8638,19.8828 1112.5112,20.0322 Q1113.1587,20.1816 1113.7231,20.4805 L1113.7231,23.2031 Q1113.0923,22.6221 1112.4988,22.3523 Q1111.9053,22.0825 1111.2744,22.0825 Q1109.9297,22.0825 1109.2449,23.1492 Q1108.5601,24.2158 1108.5601,26.3159 Q1108.5601,28.4077 1109.2449,29.4744 Q1109.9297,30.541 1111.2744,30.541 Q1111.9053,30.541 1112.4988,30.2712 Q1113.0923,30.0015 1113.7231,29.4204 Z " fill="#000000"/><text fill="#000000" font-family="Verdana" font-size="14" lengthAdjust="spacing" textLength="55" x="1128.75" y="31.5679">Election</text><line style="stroke:#000000;stroke-width:1.0;" x1="1023" x2="1262" y1="40" y2="40"/><text fill="#000000" font-family="Verdana" font-size="14" lengthAdjust="spacing" textLength="68" x="1028" y="58.0752">-String id</text><text fill="#000000" font-family="Verdana" font-size="14" lengthAdjust="spacing" textLength="94" x="1028" y="75.0898">-String name</text><text fill="#000000" font-family="Verdana" font-size="14" lengthAdjust="spacing" textLength="86" x="1028" y="92.1045">-String date</text><text fill="#000000" font-family="Verdana" font-size="14" lengthAdjust="spacing" textLength="229" x="1028" y="109.1191">-Map&lt;String, Object&gt; metadata</text><line style="stroke:#000000;stroke-width:1.0;" x1="1023" x2="1262" y1="116.0586" y2="116.0586"/><text fill="#000000" font-family="Verdana" font-size="14" lengthAdjust="spacing" textLength="116" x="1028" y="134.1338">+getId(): String</text><text fill="#000000" font-family="Verdana" font-size="14" lengthAdjust="spacing" textLength="141" x="1028" y="151.1484">+getName(): String</text><text fill="#000000" font-family="Verdana" font-size="14" lengthAdjust="spacing" textLength="134" x="1028" y="168.1631">+getDate(): String</text></g><!--class Party--><g id="elem_Party"><rect codeLine="48" fill="#FFFFFF" height="265.1904" id="Party" rx="2.5" ry="2.5" style="stroke:#000000;stroke-width:1.0;" width="162" x="1295.5" y="549.25"/><ellipse cx="1354.75" cy="563.25" fill="#FFFFFF" rx="9" ry="9" style="stroke:#000000;stroke-width:1.0;"/><path d="M1357.2231,569.3931 Q1356.6421,569.6919 1356.0029,569.8413 Q1355.3638,569.9907 1354.6582,569.9907 Q1352.1514,569.9907 1350.8315,568.3389 Q1349.5117,566.687 1349.5117,563.5659 Q1349.5117,560.4365 1350.8315,558.7847 Q1352.1514,557.1328 1354.6582,557.1328 Q1355.3638,557.1328 1356.0112,557.2822 Q1356.6587,557.4316 1357.2231,557.7305 L1357.2231,560.4531 Q1356.5923,559.8721 1355.9988,559.6023 Q1355.4053,559.3325 1354.7744,559.3325 Q1353.4297,559.3325 1352.7449,560.3992 Q1352.0601,561.4658 1352.0601,563.5659 Q1352.0601,565.6577 1352.7449,566.7244 Q1353.4297,567.791 1354.7744,567.791 Q1355.4053,567.791 1355.9988,567.5212 Q1356.5923,567.2515 1357.2231,566.6704 Z " fill="#000000"/><text fill="#000000" font-family="Verdana" font-size="14" lengthAdjust="spacing" textLength="36" x="1372.25" y="568.8179">Party</text><line style="stroke:#000000;stroke-width:1.0;" x1="1296.5" x2="1456.5" y1="577.25" y2="577.25"/><text fill="#000000" font-family="Verdana" font-size="14" lengthAdjust="spacing" textLength="58" x="1301.5" y="595.3252">-Long id</text><text fill="#000000" font-family="Verdana" font-size="14" lengthAdjust="spacing" textLength="97" x="1301.5" y="612.3398">-Long partyId</text><text fill="#000000" font-family="Verdana" font-size="14" lengthAdjust="spacing" textLength="94" x="1301.5" y="629.3545">-String name</text><text fill="#000000" font-family="Verdana" font-size="14" lengthAdjust="spacing" textLength="123" x="1301.5" y="646.3691">-String shortcode</text><text fill="#000000" font-family="Verdana" font-size="14" lengthAdjust="spacing" textLength="88" x="1301.5" y="663.3838">-String color</text><text fill="#000000" font-family="Verdana" font-size="14" lengthAdjust="spacing" textLength="101" x="1301.5" y="680.3984">-int totalVotes</text><text fill="#000000" font-family="Verdana" font-size="14" lengthAdjust="spacing" textLength="66" x="1301.5" y="697.4131">-int seats</text><text fill="#000000" font-family="Verdana" font-size="14" lengthAdjust="spacing" textLength="115" x="1301.5" y="714.4277">-boolean elected</text><line style="stroke:#000000;stroke-width:1.0;" x1="1296.5" x2="1456.5" y1="721.3672" y2="721.3672"/><text fill="#000000" font-family="Verdana" font-size="14" lengthAdjust="spacing" textLength="142" x="1301.5" y="739.4424">+getPartyId(): Long</text><text fill="#000000" font-family="Verdana" font-size="14" lengthAdjust="spacing" textLength="141" x="1301.5" y="756.457">+getName(): String</text><text fill="#000000" font-family="Verdana" font-size="14" lengthAdjust="spacing" textLength="150" x="1301.5" y="773.4717">+getTotalVotes(): int</text><text fill="#000000" font-family="Verdana" font-size="14" lengthAdjust="spacing" textLength="115" x="1301.5" y="790.4863">+getSeats(): int</text><text fill="#000000" font-family="Verdana" font-size="14" lengthAdjust="spacing" textLength="150" x="1301.5" y="807.501">+isElected(): boolean</text></g><!--class Candidate--><g id="elem_Candidate"><rect codeLine="65" fill="#FFFFFF" height="214.1465" id="Candidate" rx="2.5" ry="2.5" style="stroke:#000000;stroke-width:1.0;" width="178" x="1392.5" y="255.1"/><ellipse cx="1442.25" cy="269.1" fill="#FFFFFF" rx="9" ry="9" style="stroke:#000000;stroke-width:1.0;"/><path d="M1444.7231,275.2431 Q1444.1421,275.5419 1443.5029,275.6913 Q1442.8638,275.8407 1442.1582,275.8407 Q1439.6514,275.8407 1438.3315,274.1889 Q1437.0117,272.537 1437.0117,269.4159 Q1437.0117,266.2865 1438.3315,264.6347 Q1439.6514,262.9828 1442.1582,262.9828 Q1442.8638,262.9828 1443.5112,263.1322 Q1444.1587,263.2816 1444.7231,263.5805 L1444.7231,266.3031 Q1444.0923,265.7221 1443.4988,265.4523 Q1442.9053,265.1825 1442.2744,265.1825 Q1440.9297,265.1825 1440.2449,266.2492 Q1439.5601,267.3158 1439.5601,269.4159 Q1439.5601,271.5077 1440.2449,272.5744 Q1440.9297,273.641 1442.2744,273.641 Q1442.9053,273.641 1443.4988,273.3712 Q1444.0923,273.1015 1444.7231,272.5204 Z " fill="#000000"/><text fill="#000000" font-family="Verdana" font-size="14" lengthAdjust="spacing" textLength="71" x="1459.75" y="274.6679">Candidate</text><line style="stroke:#000000;stroke-width:1.0;" x1="1393.5" x2="1569.5" y1="283.1" y2="283.1"/><text fill="#000000" font-family="Verdana" font-size="14" lengthAdjust="spacing" textLength="62" x="1398.5" y="301.1752">-Long pk</text><text fill="#000000" font-family="Verdana" font-size="14" lengthAdjust="spacing" textLength="68" x="1398.5" y="318.1898">-String id</text><text fill="#000000" font-family="Verdana" font-size="14" lengthAdjust="spacing" textLength="123" x="1398.5" y="335.2045">-String firstName</text><text fill="#000000" font-family="Verdana" font-size="14" lengthAdjust="spacing" textLength="120" x="1398.5" y="352.2191">-String lastName</text><text fill="#000000" font-family="Verdana" font-size="14" lengthAdjust="spacing" textLength="126" x="1398.5" y="369.2338">-String shortCode</text><text fill="#000000" font-family="Verdana" font-size="14" lengthAdjust="spacing" textLength="115" x="1398.5" y="386.2484">-boolean elected</text><text fill="#000000" font-family="Verdana" font-size="14" lengthAdjust="spacing" textLength="101" x="1398.5" y="403.2631">-int totalVotes</text><line style="stroke:#000000;stroke-width:1.0;" x1="1393.5" x2="1569.5" y1="410.2025" y2="410.2025"/><text fill="#000000" font-family="Verdana" font-size="14" lengthAdjust="spacing" textLength="166" x="1398.5" y="428.2777">+getFullName(): String</text><text fill="#000000" font-family="Verdana" font-size="14" lengthAdjust="spacing" textLength="150" x="1398.5" y="445.2924">+isElected(): boolean</text><text fill="#000000" font-family="Verdana" font-size="14" lengthAdjust="spacing" textLength="150" x="1398.5" y="462.307">+getTotalVotes(): int</text></g><!--class Constituency--><g id="elem_Constituency"><rect codeLine="83" fill="#FFFFFF" height="95.0439" id="Constituency" rx="2.5" ry="2.5" style="stroke:#000000;stroke-width:1.0;" width="153" x="12" y="314.65"/><ellipse cx="40.3" cy="328.65" fill="#FFFFFF" rx="9" ry="9" style="stroke:#000000;stroke-width:1.0;"/><path d="M42.7731,334.7931 Q42.1921,335.0919 41.5529,335.2413 Q40.9138,335.3907 40.2082,335.3907 Q37.7014,335.3907 36.3815,333.7389 Q35.0617,332.087 35.0617,328.9659 Q35.0617,325.8365 36.3815,324.1847 Q37.7014,322.5328 40.2082,322.5328 Q40.9138,322.5328 41.5612,322.6822 Q42.2087,322.8316 42.7731,323.1305 L42.7731,325.8531 Q42.1423,325.2721 41.5488,325.0023 Q40.9553,324.7325 40.3244,324.7325 Q38.9797,324.7325 38.2949,325.7992 Q37.6101,326.8658 37.6101,328.9659 Q37.6101,331.0577 38.2949,332.1244 Q38.9797,333.191 40.3244,333.191 Q40.9553,333.191 41.5488,332.9212 Q42.1423,332.6515 42.7731,332.0704 Z " fill="#000000"/><text fill="#000000" font-family="Verdana" font-size="14" lengthAdjust="spacing" textLength="91" x="55.7" y="334.2179">Constituency</text><line style="stroke:#000000;stroke-width:1.0;" x1="13" x2="164" y1="342.65" y2="342.65"/><text fill="#000000" font-family="Verdana" font-size="14" lengthAdjust="spacing" textLength="68" x="18" y="360.7252">-String id</text><text fill="#000000" font-family="Verdana" font-size="14" lengthAdjust="spacing" textLength="94" x="18" y="377.7398">-String name</text><line style="stroke:#000000;stroke-width:1.0;" x1="13" x2="164" y1="384.6793" y2="384.6793"/><text fill="#000000" font-family="Verdana" font-size="14" lengthAdjust="spacing" textLength="141" x="18" y="402.7545">+getName(): String</text></g><!--class Municipality--><g id="elem_Municipality"><rect codeLine="90" fill="#FFFFFF" height="95.0439" id="Municipality" rx="2.5" ry="2.5" style="stroke:#000000;stroke-width:1.0;" width="153" x="313" y="634.32"/><ellipse cx="344.45" cy="648.32" fill="#FFFFFF" rx="9" ry="9" style="stroke:#000000;stroke-width:1.0;"/><path d="M346.9231,654.4631 Q346.3421,654.7619 345.7029,654.9113 Q345.0638,655.0607 344.3582,655.0607 Q341.8514,655.0607 340.5315,653.4089 Q339.2117,651.757 339.2117,648.6359 Q339.2117,645.5065 340.5315,643.8547 Q341.8514,642.2028 344.3582,642.2028 Q345.0638,642.2028 345.7112,642.3522 Q346.3587,642.5016 346.9231,642.8005 L346.9231,645.5231 Q346.2923,644.9421 345.6988,644.6723 Q345.1053,644.4025 344.4744,644.4025 Q343.1297,644.4025 342.4449,645.4692 Q341.7601,646.5358 341.7601,648.6359 Q341.7601,650.7277 342.4449,651.7944 Q343.1297,652.861 344.4744,652.861 Q345.1053,652.861 345.6988,652.5912 Q346.2923,652.3215 346.9231,651.7404 Z " fill="#000000"/><text fill="#000000" font-family="Verdana" font-size="14" lengthAdjust="spacing" textLength="84" x="360.55" y="653.8879">Municipality</text><line style="stroke:#000000;stroke-width:1.0;" x1="314" x2="465" y1="662.32" y2="662.32"/><text fill="#000000" font-family="Verdana" font-size="14" lengthAdjust="spacing" textLength="68" x="319" y="680.3952">-String id</text><text fill="#000000" font-family="Verdana" font-size="14" lengthAdjust="spacing" textLength="94" x="319" y="697.4098">-String name</text><line style="stroke:#000000;stroke-width:1.0;" x1="314" x2="465" y1="704.3493" y2="704.3493"/><text fill="#000000" font-family="Verdana" font-size="14" lengthAdjust="spacing" textLength="141" x="319" y="722.4245">+getName(): String</text></g><!--class PartyResult--><g id="elem_PartyResult"><rect codeLine="101" fill="#FFFFFF" height="180.1172" id="PartyResult" rx="2.5" ry="2.5" style="stroke:#000000;stroke-width:1.0;" width="193" x="1651" y="272.12"/><ellipse cx="1703.75" cy="286.12" fill="#FFFFFF" rx="9" ry="9" style="stroke:#000000;stroke-width:1.0;"/><path d="M1706.2231,292.2631 Q1705.6421,292.5619 1705.0029,292.7113 Q1704.3638,292.8607 1703.6582,292.8607 Q1701.1514,292.8607 1699.8315,291.2089 Q1698.5117,289.557 1698.5117,286.4359 Q1698.5117,283.3065 1699.8315,281.6547 Q1701.1514,280.0028 1703.6582,280.0028 Q1704.3638,280.0028 1705.0112,280.1522 Q1705.6587,280.3016 1706.2231,280.6005 L1706.2231,283.3231 Q1705.5923,282.7421 1704.9988,282.4723 Q1704.4053,282.2025 1703.7744,282.2025 Q1702.4297,282.2025 1701.7449,283.2692 Q1701.0601,284.3358 1701.0601,286.4359 Q1701.0601,288.5277 1701.7449,289.5944 Q1702.4297,290.661 1703.7744,290.661 Q1704.4053,290.661 1704.9988,290.3912 Q1705.5923,290.1215 1706.2231,289.5404 Z " fill="#000000"/><text fill="#000000" font-family="Verdana" font-size="14" lengthAdjust="spacing" textLength="80" x="1721.25" y="291.6879">PartyResult</text><line style="stroke:#000000;stroke-width:1.0;" x1="1652" x2="1843" y1="300.12" y2="300.12"/><text fill="#000000" font-family="Verdana" font-size="14" lengthAdjust="spacing" textLength="58" x="1657" y="318.1952">-Long id</text><text fill="#000000" font-family="Verdana" font-size="14" lengthAdjust="spacing" textLength="101" x="1657" y="335.2098">-int totalVotes</text><text fill="#000000" font-family="Verdana" font-size="14" lengthAdjust="spacing" textLength="136" x="1657" y="352.2245">-double percentage</text><text fill="#000000" font-family="Verdana" font-size="14" lengthAdjust="spacing" textLength="66" x="1657" y="369.2391">-int seats</text><text fill="#000000" font-family="Verdana" font-size="14" lengthAdjust="spacing" textLength="115" x="1657" y="386.2538">-boolean elected</text><line style="stroke:#000000;stroke-width:1.0;" x1="1652" x2="1843" y1="393.1932" y2="393.1932"/><text fill="#000000" font-family="Verdana" font-size="14" lengthAdjust="spacing" textLength="150" x="1657" y="411.2684">+getTotalVotes(): int</text><text fill="#000000" font-family="Verdana" font-size="14" lengthAdjust="spacing" textLength="181" x="1657" y="428.2831">+getPercentage(): double</text><text fill="#000000" font-family="Verdana" font-size="14" lengthAdjust="spacing" textLength="115" x="1657" y="445.2977">+getSeats(): int</text></g><!--class MunicipalityResult--><g id="elem_MunicipalityResult"><rect codeLine="117" fill="#FFFFFF" height="129.0732" id="MunicipalityResult" rx="2.5" ry="2.5" style="stroke:#000000;stroke-width:1.0;" width="193" x="593" y="297.64"/><ellipse cx="622.65" cy="311.64" fill="#FFFFFF" rx="9" ry="9" style="stroke:#000000;stroke-width:1.0;"/><path d="M625.1231,317.7831 Q624.5421,318.0819 623.9029,318.2313 Q623.2638,318.3807 622.5582,318.3807 Q620.0514,318.3807 618.7315,316.7289 Q617.4117,315.077 617.4117,311.9559 Q617.4117,308.8265 618.7315,307.1747 Q620.0514,305.5228 622.5582,305.5228 Q623.2638,305.5228 623.9112,305.6722 Q624.5587,305.8216 625.1231,306.1205 L625.1231,308.8431 Q624.4923,308.2621 623.8988,307.9923 Q623.3053,307.7225 622.6744,307.7225 Q621.3297,307.7225 620.6449,308.7892 Q619.9601,309.8558 619.9601,311.9559 Q619.9601,314.0477 620.6449,315.1144 Q621.3297,316.181 622.6744,316.181 Q623.3053,316.181 623.8988,315.9112 Q624.4923,315.6415 625.1231,315.0604 Z " fill="#000000"/><text fill="#000000" font-family="Verdana" font-size="14" lengthAdjust="spacing" textLength="128" x="638.35" y="317.2079">MunicipalityResult</text><line style="stroke:#000000;stroke-width:1.0;" x1="594" x2="785" y1="325.64" y2="325.64"/><text fill="#000000" font-family="Verdana" font-size="14" lengthAdjust="spacing" textLength="58" x="599" y="343.7152">-Long id</text><text fill="#000000" font-family="Verdana" font-size="14" lengthAdjust="spacing" textLength="101" x="599" y="360.7298">-int totalVotes</text><text fill="#000000" font-family="Verdana" font-size="14" lengthAdjust="spacing" textLength="136" x="599" y="377.7445">-double percentage</text><line style="stroke:#000000;stroke-width:1.0;" x1="594" x2="785" y1="384.6839" y2="384.6839"/><text fill="#000000" font-family="Verdana" font-size="14" lengthAdjust="spacing" textLength="150" x="599" y="402.7591">+getTotalVotes(): int</text><text fill="#000000" font-family="Verdana" font-size="14" lengthAdjust="spacing" textLength="181" x="599" y="419.7738">+getPercentage(): double</text></g><!--class MunicipalityCandidate--><g id="elem_MunicipalityCandidate"><rect codeLine="126" fill="#FFFFFF" height="163.1025" id="MunicipalityCandidate" rx="2.5" ry="2.5" style="stroke:#000000;stroke-width:1.0;" width="199" x="1950" y="12"/><ellipse cx="1970.2" cy="26" fill="#FFFFFF" rx="9" ry="9" style="stroke:#000000;stroke-width:1.0;"/><path d="M1972.6731,32.1431 Q1972.0921,32.4419 1971.4529,32.5913 Q1970.8138,32.7407 1970.1082,32.7407 Q1967.6014,32.7407 1966.2815,31.0889 Q1964.9617,29.437 1964.9617,26.3159 Q1964.9617,23.1865 1966.2815,21.5347 Q1967.6014,19.8828 1970.1082,19.8828 Q1970.8138,19.8828 1971.4612,20.0322 Q1972.1087,20.1816 1972.6731,20.4805 L1972.6731,23.2031 Q1972.0423,22.6221 1971.4488,22.3523 Q1970.8553,22.0825 1970.2244,22.0825 Q1968.8797,22.0825 1968.1949,23.1492 Q1967.5101,24.2158 1967.5101,26.3159 Q1967.5101,28.4077 1968.1949,29.4744 Q1968.8797,30.541 1970.2244,30.541 Q1970.8553,30.541 1971.4488,30.2712 Q1972.0423,30.0015 1972.6731,29.4204 Z " fill="#000000"/><text fill="#000000" font-family="Verdana" font-size="14" lengthAdjust="spacing" textLength="155" x="1983.8" y="31.5679">MunicipalityCandidate</text><line style="stroke:#000000;stroke-width:1.0;" x1="1951" x2="2148" y1="40" y2="40"/><text fill="#000000" font-family="Verdana" font-size="14" lengthAdjust="spacing" textLength="58" x="1956" y="58.0752">-Long id</text><text fill="#000000" font-family="Verdana" font-size="14" lengthAdjust="spacing" textLength="138" x="1956" y="75.0898">-String candidateId</text><text fill="#000000" font-family="Verdana" font-size="14" lengthAdjust="spacing" textLength="94" x="1956" y="92.1045">-String name</text><text fill="#000000" font-family="Verdana" font-size="14" lengthAdjust="spacing" textLength="107" x="1956" y="109.1191">-String partyId</text><text fill="#000000" font-family="Verdana" font-size="14" lengthAdjust="spacing" textLength="67" x="1956" y="126.1338">-int votes</text><line style="stroke:#000000;stroke-width:1.0;" x1="1951" x2="2148" y1="133.0732" y2="133.0732"/><text fill="#000000" font-family="Verdana" font-size="14" lengthAdjust="spacing" textLength="187" x="1956" y="151.1484">+getCandidateId(): String</text><text fill="#000000" font-family="Verdana" font-size="14" lengthAdjust="spacing" textLength="115" x="1956" y="168.1631">+getVotes(): int</text></g><!--class MunicipalityParty--><g id="elem_MunicipalityParty"><rect codeLine="137" fill="#FFFFFF" height="146.0879" id="MunicipalityParty" rx="2.5" ry="2.5" style="stroke:#000000;stroke-width:1.0;" width="164" x="2229.5" y="20.51"/><ellipse cx="2249.7" cy="34.51" fill="#FFFFFF" rx="9" ry="9" style="stroke:#000000;stroke-width:1.0;"/><path d="M2252.1731,40.6531 Q2251.5921,40.9519 2250.9529,41.1013 Q2250.3138,41.2507 2249.6082,41.2507 Q2247.1014,41.2507 2245.7815,39.5989 Q2244.4617,37.947 2244.4617,34.8259 Q2244.4617,31.6965 2245.7815,30.0447 Q2247.1014,28.3928 2249.6082,28.3928 Q2250.3138,28.3928 2250.9612,28.5422 Q2251.6087,28.6916 2252.1731,28.9905 L2252.1731,31.7131 Q2251.5423,31.1321 2250.9488,30.8623 Q2250.3553,30.5925 2249.7244,30.5925 Q2248.3797,30.5925 2247.6949,31.6592 Q2247.0101,32.7258 2247.0101,34.8259 Q2247.0101,36.9177 2247.6949,37.9844 Q2248.3797,39.051 2249.7244,39.051 Q2250.3553,39.051 2250.9488,38.7812 Q2251.5423,38.5115 2252.1731,37.9304 Z " fill="#000000"/><text fill="#000000" font-family="Verdana" font-size="14" lengthAdjust="spacing" textLength="120" x="2263.3" y="40.0779">MunicipalityParty</text><line style="stroke:#000000;stroke-width:1.0;" x1="2230.5" x2="2392.5" y1="48.51" y2="48.51"/><text fill="#000000" font-family="Verdana" font-size="14" lengthAdjust="spacing" textLength="58" x="2235.5" y="66.5852">-Long id</text><text fill="#000000" font-family="Verdana" font-size="14" lengthAdjust="spacing" textLength="107" x="2235.5" y="83.5998">-String partyId</text><text fill="#000000" font-family="Verdana" font-size="14" lengthAdjust="spacing" textLength="94" x="2235.5" y="100.6145">-String name</text><text fill="#000000" font-family="Verdana" font-size="14" lengthAdjust="spacing" textLength="67" x="2235.5" y="117.6291">-int votes</text><line style="stroke:#000000;stroke-width:1.0;" x1="2230.5" x2="2392.5" y1="124.5686" y2="124.5686"/><text fill="#000000" font-family="Verdana" font-size="14" lengthAdjust="spacing" textLength="152" x="2235.5" y="142.6438">+getPartyId(): String</text><text fill="#000000" font-family="Verdana" font-size="14" lengthAdjust="spacing" textLength="115" x="2235.5" y="159.6584">+getVotes(): int</text></g><g id="elem_GMN21"><path d="M1625,64.85 L1625,122.2479 A0,0 0 0 0 1625,122.2479 L1775.67,122.2479 L1779.67,271.7 L1783.67,122.2479 L1870,122.2479 A0,0 0 0 0 1870,122.2479 L1870,74.85 L1860,64.85 L1625,64.85 A0,0 0 0 0 1625,64.85 " fill="#FFFFFF" style="stroke:#000000;stroke-width:1.0;"/><path d="M1860,64.85 L1860,74.85 L1870,74.85 L1860,64.85 " fill="#FFFFFF" style="stroke:#000000;stroke-width:1.0;"/><text fill="#000000" font-family="Verdana" font-size="13" lengthAdjust="spacing" textLength="223" x="1631" y="82.9198">National-level aggregated results</text><text fill="#000000" font-family="Verdana" font-size="13" lengthAdjust="spacing" textLength="224" x="1631" y="98.7191">Calculated from all municipalities</text><text fill="#000000" font-family="Verdana" font-size="13" lengthAdjust="spacing" textLength="217" x="1631" y="114.5185">Used for national seat allocation</text></g><g id="elem_GMN24"><path d="M566.5,64.85 L566.5,122.2479 A0,0 0 0 0 566.5,122.2479 L685.5,122.2479 L689.5,297.18 L693.5,122.2479 L812.5,122.2479 A0,0 0 0 0 812.5,122.2479 L812.5,74.85 L802.5,64.85 L566.5,64.85 A0,0 0 0 0 566.5,64.85 " fill="#FFFFFF" style="stroke:#000000;stroke-width:1.0;"/><path d="M802.5,64.85 L802.5,74.85 L812.5,74.85 L802.5,64.85 " fill="#FFFFFF" style="stroke:#000000;stroke-width:1.0;"/><text fill="#000000" font-family="Verdana" font-size="13" lengthAdjust="spacing" textLength="225" x="572.5" y="82.9198">Municipality-level detailed results</text><text fill="#000000" font-family="Verdana" font-size="13" lengthAdjust="spacing" textLength="180" x="572.5" y="98.7191">Per party, per municipality</text><text fill="#000000" font-family="Verdana" font-size="13" lengthAdjust="spacing" textLength="138" x="572.5" y="114.5185">Granular voting data</text></g><g id="elem_GMN27"><path d="M866.5,317.68 L866.5,406.6766 A0,0 0 0 0 866.5,406.6766 L1150.5,406.6766 A0,0 0 0 0 1150.5,406.6766 L1150.5,327.68 L1140.5,317.68 L1111.67,317.68 L1107.67,175.24 L1103.67,317.68 L866.5,317.68 A0,0 0 0 0 866.5,317.68 " fill="#FFFFFF" style="stroke:#000000;stroke-width:1.0;"/><path d="M1140.5,317.68 L1140.5,327.68 L1150.5,327.68 L1140.5,317.68 " fill="#FFFFFF" style="stroke:#000000;stroke-width:1.0;"/><text fill="#000000" font-family="Verdana" font-size="13" lengthAdjust="spacing" textLength="252" x="872.5" y="335.7498">Central entity linking all election data</text><text fill="#000000" font-family="Verdana" font-size="13" lengthAdjust="spacing" textLength="263" x="872.5" y="351.5491">One election (e.g., "TK2023") contains:</text><text fill="#000000" font-family="Verdana" font-size="13" lengthAdjust="spacing" textLength="184" x="872.5" y="367.3485">- All parties and candidates</text><text fill="#000000" font-family="Verdana" font-size="13" lengthAdjust="spacing" textLength="169" x="872.5" y="383.1478">- All geographic divisions</text><text fill="#000000" font-family="Verdana" font-size="13" lengthAdjust="spacing" textLength="162" x="872.5" y="398.9471">- All result aggregations</text></g><g id="elem_GMN30"><path d="M244.5,333.48 L244.5,358.44 L165.45,362.44 L244.5,366.44 L244.5,390.8779 A0,0 0 0 0 244.5,390.8779 L512.5,390.8779 A0,0 0 0 0 512.5,390.8779 L512.5,343.48 L502.5,333.48 L244.5,333.48 A0,0 0 0 0 244.5,333.48 " fill="#FFFFFF" style="stroke:#000000;stroke-width:1.0;"/><path d="M502.5,333.48 L502.5,343.48 L512.5,343.48 L502.5,333.48 " fill="#FFFFFF" style="stroke:#000000;stroke-width:1.0;"/><text fill="#000000" font-family="Verdana" font-size="13" lengthAdjust="spacing" textLength="175" x="250.5" y="351.5498">Geographic voting regions</text><text fill="#000000" font-family="Verdana" font-size="13" lengthAdjust="spacing" textLength="247" x="250.5" y="367.3491">Each contains multiple municipalities</text><text fill="#000000" font-family="Verdana" font-size="13" lengthAdjust="spacing" textLength="175" x="250.5" y="383.1485">Used for regional analysis</text></g><!--reverse link Election to Candidate--><g id="link_Election_Candidate"><path codeLine="151" d="M1206.75,187.37 C1206.75,236.06 1206.75,276.44 1206.75,276.44 C1206.75,276.44 1312.07,276.44 1392.3,276.44 " fill="none" id="Election-backto-Candidate" style="stroke:#000000;stroke-width:1.0;"/><polygon fill="#000000" points="1206.75,175.37,1202.75,181.37,1206.75,187.37,1210.75,181.37,1206.75,175.37" style="stroke:#000000;stroke-width:1.0;"/><text fill="#000000" font-family="Verdana" font-size="13" lengthAdjust="spacing" textLength="55" x="1192.99" y="273.5098">contains</text><text fill="#000000" font-family="Verdana" font-size="13" lengthAdjust="spacing" textLength="8" x="1203.9277" y="196.15">1</text><text fill="#000000" font-family="Verdana" font-size="13" lengthAdjust="spacing" textLength="26" x="1358.4753" y="267.4023">0..*</text></g><!--reverse link Election to Party--><g id="link_Election_Party"><path codeLine="152" d="M1275.43,157.44 C1325.53,157.44 1360.17,157.44 1360.17,157.44 C1360.17,157.44 1360.17,393.48 1360.17,548.84 " fill="none" id="Election-backto-Party" style="stroke:#000000;stroke-width:1.0;"/><polygon fill="#000000" points="1263.43,157.44,1269.43,161.44,1275.43,157.44,1269.43,153.44,1263.43,157.44" style="stroke:#000000;stroke-width:1.0;"/><text fill="#000000" font-family="Verdana" font-size="13" lengthAdjust="spacing" textLength="23" x="1336.17" y="301.8398">has</text><text fill="#000000" font-family="Verdana" font-size="13" lengthAdjust="spacing" textLength="8" x="1271.0429" y="158.9704">1</text><text fill="#000000" font-family="Verdana" font-size="13" lengthAdjust="spacing" textLength="26" x="1332.3827" y="538.3721">0..*</text></g><!--reverse link Election to Constituency--><g id="link_Election_Constituency"><path codeLine="153" d="M1009.59,148.44 C732.74,148.44 88.5,148.44 88.5,148.44 C88.5,148.44 88.5,251.19 88.5,314.21 " fill="none" id="Election-backto-Constituency" style="stroke:#000000;stroke-width:1.0;"/><polygon fill="#000000" points="1021.59,148.44,1015.59,144.44,1009.59,148.44,1015.59,152.44,1021.59,148.44" style="stroke:#000000;stroke-width:1.0;"/><text fill="#000000" font-family="Verdana" font-size="13" lengthAdjust="spacing" textLength="78" x="393.16" y="145.5098">divided into</text><text fill="#000000" font-family="Verdana" font-size="13" lengthAdjust="spacing" textLength="8" x="1005.9783" y="149.4219">1</text><text fill="#000000" font-family="Verdana" font-size="13" lengthAdjust="spacing" textLength="26" x="60.5094" y="303.8484">0..*</text></g><!--link Candidate to Party--><g id="link_Candidate_Party"><path codeLine="156" d="M1425,469.51 C1425,494.99 1425,516.48 1425,542.95 " fill="none" id="Candidate-to-Party" style="stroke:#000000;stroke-width:1.0;"/><polygon fill="#000000" points="1425,548.95,1429,539.95,1425,543.95,1421,539.95,1425,548.95" style="stroke:#000000;stroke-width:1.0;"/><text fill="#000000" font-family="Verdana" font-size="13" lengthAdjust="spacing" textLength="69" x="1355" y="506.2998">belongs to</text><text fill="#000000" font-family="Verdana" font-size="13" lengthAdjust="spacing" textLength="26" x="1394.3305" y="490.3223">0..*</text><text fill="#000000" font-family="Verdana" font-size="13" lengthAdjust="spacing" textLength="8" x="1419.7117" y="538.4888">1</text></g><!--reverse link Constituency to Municipality--><g id="link_Constituency_Municipality"><path codeLine="159" d="M177.24,400.44 C258.76,400.44 364,400.44 364,400.44 C364,400.44 364,553.82 364,634.11 " fill="none" id="Constituency-backto-Municipality" style="stroke:#000000;stroke-width:1.0;"/><polygon fill="#000000" points="165.24,400.44,171.24,404.44,177.24,400.44,171.24,396.44,165.24,400.44" style="stroke:#000000;stroke-width:1.0;"/><text fill="#000000" font-family="Verdana" font-size="13" lengthAdjust="spacing" textLength="85" x="278" y="414.9698">composed of</text><text fill="#000000" font-family="Verdana" font-size="13" lengthAdjust="spacing" textLength="8" x="172.9355" y="401.4805">1</text><text fill="#000000" font-family="Verdana" font-size="13" lengthAdjust="spacing" textLength="26" x="331.8641" y="623.4409">0..*</text></g><!--reverse link Election to PartyResult--><g id="link_Election_PartyResult"><path codeLine="165" d="M1275.28,139.44 C1443.35,139.44 1715.33,139.44 1715.33,139.44 C1715.33,139.44 1715.33,210.16 1715.33,271.9 " fill="none" id="Election-backto-PartyResult" style="stroke:#000000;stroke-width:1.0;"/><polygon fill="#000000" points="1263.28,139.44,1269.28,143.44,1275.28,139.44,1269.28,135.44,1263.28,139.44" style="stroke:#000000;stroke-width:1.0;"/><text fill="#000000" font-family="Verdana" font-size="13" lengthAdjust="spacing" textLength="73" x="1481.54" y="136.5098">has results</text><text fill="#000000" font-family="Verdana" font-size="13" lengthAdjust="spacing" textLength="8" x="1270.8838" y="139.8735">1</text><text fill="#000000" font-family="Verdana" font-size="13" lengthAdjust="spacing" textLength="26" x="1685.307" y="261.297">0..*</text></g><!--link PartyResult to Party--><g id="link_PartyResult_Party"><path codeLine="166" d="M1747.5,452.38 C1747.5,546.79 1747.5,681.44 1747.5,681.44 C1747.5,681.44 1573.13,681.44 1463.92,681.44 " fill="none" id="PartyResult-to-Party" style="stroke:#000000;stroke-width:1.0;"/><polygon fill="#000000" points="1457.92,681.44,1466.92,685.44,1462.92,681.44,1466.92,677.44,1457.92,681.44" style="stroke:#000000;stroke-width:1.0;"/><text fill="#000000" font-family="Verdana" font-size="13" lengthAdjust="spacing" textLength="41" x="1675.24" y="678.5098">tracks</text><text fill="#000000" font-family="Verdana" font-size="13" lengthAdjust="spacing" textLength="26" x="1720.4641" y="473.2673">0..*</text><text fill="#000000" font-family="Verdana" font-size="13" lengthAdjust="spacing" textLength="8" x="1465.5277" y="678.8414">1</text></g><!--reverse link Election to MunicipalityResult--><g id="link_Election_MunicipalityResult"><path codeLine="172" d="M1064.83,187.33 C1064.83,247.71 1064.83,307.44 1064.83,307.44 C1064.83,307.44 897.37,307.44 786.16,307.44 " fill="none" id="Election-backto-MunicipalityResult" style="stroke:#000000;stroke-width:1.0;"/><polygon fill="#000000" points="1064.83,175.33,1060.83,181.33,1064.83,187.33,1068.83,181.33,1064.83,175.33" style="stroke:#000000;stroke-width:1.0;"/><text fill="#000000" font-family="Verdana" font-size="13" lengthAdjust="spacing" textLength="73" x="917.55" y="304.5098">has results</text><text fill="#000000" font-family="Verdana" font-size="13" lengthAdjust="spacing" textLength="8" x="1049.8115" y="196.1066">1</text><text fill="#000000" font-family="Verdana" font-size="13" lengthAdjust="spacing" textLength="26" x="793.8705" y="301.1619">0..*</text></g><!--link MunicipalityResult to Municipality--><g id="link_MunicipalityResult_Municipality"><path codeLine="173" d="M592.72,418.44 C513.69,418.44 415,418.44 415,418.44 C415,418.44 415,551.86 415,627.84 " fill="none" id="MunicipalityResult-to-Municipality" style="stroke:#000000;stroke-width:1.0;"/><polygon fill="#000000" points="415,633.84,419,624.84,415,628.84,411,624.84,415,633.84" style="stroke:#000000;stroke-width:1.0;"/><text fill="#000000" font-family="Verdana" font-size="13" lengthAdjust="spacing" textLength="19" x="395" y="434.3498">for</text><text fill="#000000" font-family="Verdana" font-size="13" lengthAdjust="spacing" textLength="26" x="559.0011" y="419.9666">0..*</text><text fill="#000000" font-family="Verdana" font-size="13" lengthAdjust="spacing" textLength="8" x="410.2922" y="623.4723">1</text></g><!--link MunicipalityResult to Party--><g id="link_MunicipalityResult_Party"><path codeLine="174" d="M786.45,416.44 C965.02,416.44 1327.83,416.44 1327.83,416.44 C1327.83,416.44 1327.83,476.53 1327.83,542.75 " fill="none" id="MunicipalityResult-to-Party" style="stroke:#000000;stroke-width:1.0;"/><polygon fill="#000000" points="1327.83,548.75,1331.83,539.75,1327.83,543.75,1323.83,539.75,1327.83,548.75" style="stroke:#000000;stroke-width:1.0;"/><text fill="#000000" font-family="Verdana" font-size="13" lengthAdjust="spacing" textLength="13" x="1109.3" y="430.5098">of</text><text fill="#000000" font-family="Verdana" font-size="13" lengthAdjust="spacing" textLength="26" x="793.8373" y="417.6786">0..*</text><text fill="#000000" font-family="Verdana" font-size="13" lengthAdjust="spacing" textLength="8" x="1316.785" y="538.7148">1</text></g><!--SRC=[lLXRazes57xthpZbPNVJXMoJwKo7QJF3UDt42RV19kbRHjW2b1MIHnARePtyznx9O0imsqjWzm4MNSxvpdSkqj4FPabN50fEc0Zq0nC5KMG56ITQzunHRBOsDCwaIDYV5Ewy9GN97iY29cR3AIYQ6I8Md7eBz9BayYiJ2vWJhlqPpWGrcuA2L6OflGaXSwff0R_uYXGH3zl1uELLyDjv_u8aZGQVulS9HFqeJEFH4Ev7WruyXC7eFkgVNLqmdax6eoJg1kcIQPWE-YNPa3EoSERIGY49mcX0tm3bI2sJ0d9Y2AoG80vpgTnSOkZg4_kY8K3_6HnTTI0sIBpygW4_u7vjicKj0kMkESebYe8sQfsPjQBvBSoLHEw9NKDumEaZwa3N2J0IcCZP8ylNXCDgBLZ62iAPOLHtWY09HsCqf0tHeGPjfCBWW6jqeQPvgU43xbA4vF076ctDkS6jmwrQ82AlDS2ZD1J8Og7emYt0bMEYpCOjo_23eG2AwApLknMX5DemiwOYs-pBOxYpiZW8xdjf3vBHT18Y_1xd9Rde3X-kdCznCsAnSEUCKvnM4hd01REDSq1bqNN9TE28GDCvObcBZF4RXyFIWRkOm0X7k1npANSwPqHJm2_k-EptaXIcOqGNtNTXA1_fQaOLlBfxzJDS9uLYmi3hcxE7vDNB8BY2yugiioaSJIA8XccSnb5oRZr1cJjL_FqL0BGnBvGjEoptVmcoelvl6p_kzu0KlvPZjp2QVK59Rs153R7-mGMVF-F7Zx2W9iwlRxhRxRkn8Kez7hr7sTxejntECeHBa7rPGtJ_5tOoVX8pPhOo6TO0Vp2JN2etOEF3I4FuHymUNGrfIapvQoObfqIK5O7cUzQDI_KMjeNpj85ffSNEePBTH69r-MDCHwKoExZLNnCILfdiaL8ydFRYd2djCFc3AEfep54LxgWwDho1hPgBtzUSDnZUQCj9HhvT8AlUHgEtazxuNHn2aawcOJgTH1VAgRrY-izvLPDtG5pbwu5VZBzFuEMgrIHAflqqGJJ3dXtezQ4VVSHxm6L8TaatSOTcGrbeoETShl6mW8Ag3Ay8UCJ-nom_cRZZIgATADKq9lKpqJ-O3kCm7b-OVpyclzSD_vVanWHfB8pxULBTWfu-C_nZnLhoU5JjmbhGSQK_B6d7K4yTQWtw3o4su_5EegUnd3qE9r7VPNtoBXxR8ApYydB5jhgwj7vgmOjs6rftdSwBbdSoTl64nvXXGfzSNBgW2qjoUirUFUz2orthtQNKo9RbijAeOKQvTIHU_qdflw26inNNRhzn6dQgM-KUR5gsqcfrU4dUcN3GGmHxe0u0xvqNg22JgqBQsxcSjvx1zrNztzQaP_EyVoQWsUZJNLlL2lovKuum2Zjp_HmKrJNwkJbggDk7L3KiEM3iCC2mbVmtsogYBnE7mr5wWJv9s7xQo0AJnmymhAox1hnTzlsxdXlpR4ibhWa9pzRS3RhMcF33rm1SD7MTirJLIuAxajYrCYixT8gji0Mo3-UOSHJc3swHvTYJOHVkuyBpjAnFj_OetcltSVQj8W9HAtl4R3i-SeXX9ernlNxLGrfpyOosFJn-sT3WJ3pO_TRglUSON3eItXFDDUqiEhVGIZzWo_wwTLCLxguxxUn3WqLhw-7UCuQkfXTKBXGfbYm3MvyrIgqdIxlzLn5zQ8vYYwMnrlY5rL9HozsIWIAsmYEIBIkao24thC2xpMd_bblTamtX6yqy57y3]--></g></svg>